<svg xmlns="http://www.w3.org/2000/svg" xmlns:xlink="http://www.w3.org/1999/xlink" width="350" height="65" viewBox="0 0 350 65"><defs><style>.a{clip-path:url(#b);}.b{fill:none;}.c{fill:#5d5c61;font-size:40px;}.c,.d{font-family:SitkaText, Sitka Text;}.d{fill:#f38516;font-size:70px;}.e,.f{stroke:none;}.f{fill:#f38516;}</style><clipPath id="b"><rect width="350" height="65"/></clipPath></defs><g id="a" class="a"><g class="b" transform="translate(5 5)"><path class="e" d="M6,0H49a6,6,0,0,1,6,6V49a6,6,0,0,1-6,6H6a6,6,0,0,1-6-6V6A6,6,0,0,1,6,0Z"/><path class="f" d="M 6 1 C 3.242988586425781 1 1 3.242988586425781 1 6 L 1 49 C 1 51.75701141357422 3.242988586425781 54 6 54 L 49 54 C 51.75701141357422 54 54 51.75701141357422 54 49 L 54 6 C 54 3.242988586425781 51.75701141357422 1 49 1 L 6 1 M 6 0 L 49 0 C 52.3137092590332 0 55 2.686290740966797 55 6 L 55 49 C 55 52.3137092590332 52.3137092590332 55 49 55 L 6 55 C 2.686290740966797 55 0 52.3137092590332 0 49 L 0 6 C 0 2.686290740966797 2.686290740966797 0 6 0 Z"/></g><text class="c" transform="translate(70 45)"><tspan x="0" y="0">RESTAURANT</tspan></text><text class="d" transform="translate(9 55)"><tspan x="0" y="0">R</tspan></text></g></svg>